<svg
    xmlns="http://www.w3.org/2000/svg"
    viewBox="0 0 146 40"
    width="146"
    height="40"
  >
    <g fill="none" fillRule="evenodd">
      <path d="M0 0h146v40H0z" />
      <path fill="#FFCF01" d="M8.405 19.221c-.11-.267-.218-1.265-.218-1.852 0-3.172 2.272-5.917 8.232-5.917h3.126s-.705.303-2.254 1.426C15.743 14 8.405 19.22 8.405 19.22zm24.534-2.387l11.268-8.357h-5.598l-8.469 6.36-2.24-1.442h-5.32l4.834 3.51-3.743 3.1c-1.91 1.586-4.583 3.803-8.545 3.803-1.563 0-3.778-.345-5.013-1.682L28.378 8.477h-11.05c-6.76 0-10.213 3.83-10.213 8.57 0 .98.218 2.21.472 2.78L.009 25.334h5.797l3.508-2.602c1.271 1.55 3.98 2.993 6.849 3.008 4.726.04 8.99-3.043 10.506-4.22l3.435-2.673 8.96 6.487h6.266l-12.391-8.5z" />
      <path
        fill="#FFF"
        d="M111.126 15.4c-.31-1.793-1.797-2.644-3.192-2.644-1.394 0-2.851.882-3.161 2.643h6.353zm3.27 4.9c-.403.973-1.72 3.851-6.4 3.851-2.17 0-3.812-.608-5.145-1.854-1.487-1.367-2.107-3.07-2.107-5.135 0-2.614 1.085-4.224 2.045-5.166 1.582-1.52 3.44-1.854 5.053-1.854 2.726 0 4.307 1.064 5.237 2.157 1.426 1.672 1.611 3.738 1.611 5.166v.304h-10.04c0 .791.216 1.641.65 2.219.402.547 1.24 1.246 2.695 1.246 1.427 0 2.511-.669 3.131-1.733l3.27.8zM59.29 15.4c-.31-1.793-1.797-2.644-3.192-2.644-1.395 0-2.851.882-3.161 2.643h6.353zm3.27 4.9c-.403.973-1.72 3.851-6.4 3.851-2.17 0-3.812-.608-5.145-1.854-1.488-1.367-2.107-3.07-2.107-5.135 0-2.614 1.084-4.224 2.045-5.166 1.581-1.52 3.44-1.854 5.052-1.854 2.727 0 4.308 1.064 5.238 2.157 1.425 1.672 1.611 3.738 1.611 5.166v.304H52.813c0 .791.217 1.641.651 2.219.402.547 1.24 1.246 2.696 1.246 1.426 0 2.51-.669 3.13-1.733l3.27.8zm20.85-9.919h4.09v2.176c.805-.865 2.105-2.395 4.465-2.395 2.976 0 4.74 1.561 4.74 5.768v7.877h-3.94v-7.558c0-1.636-.785-2.611-1.97-2.611-1.38 0-2.566.822-3.295 1.742v8.428h-4.09V10.38zm48.994 11.981l1.071-2.94c1.517 1.058 3.74 1.74 5.047 1.74 1.15 0 1.672-.404 1.672-1.009v-.05c0-.833-1.358-1.11-2.901-1.563-1.961-.555-4.183-1.438-4.183-4.06v-.051c0-2.748 2.3-4.287 5.124-4.287 1.779 0 3.357.362 4.873 1.346l-.812 2.865c-1.386-.782-3.12-1.26-4.14-1.26-.967 0-1.463.403-1.463.933v.05c0 .757 1.333 1.109 2.849 1.614 1.961.63 4.235 1.538 4.235 4.009v.05c0 3.001-2.326 4.363-5.359 4.363-1.961 0-4.157-.337-6.013-1.75zm-14.197 0l1.071-2.94c1.517 1.058 3.739 1.74 5.047 1.74 1.15 0 1.672-.404 1.672-1.009v-.05c0-.833-1.36-1.11-2.902-1.563-1.96-.556-4.183-1.439-4.183-4.06v-.051c0-2.748 2.301-4.287 5.125-4.287 1.778 0 3.356.362 4.872 1.346l-.811 2.865c-1.386-.782-3.12-1.26-4.14-1.26-.967 0-1.464.403-1.464.933v.05c0 .757 1.333 1.109 2.849 1.614 1.961.63 4.236 1.538 4.236 4.009v.05c0 3.001-2.327 4.363-5.36 4.362-1.96 0-4.156-.336-6.012-1.749zm-45.958-8.04l2.82-3.93h4.438l-5.052 6.558 5.275 6.857h-4.55l-3.015-4.18-3.015 4.18h-4.438L69.96 17l-5.052-6.608h4.55l2.79 3.93zM89.308 33.464V36h-1.186v-6.825h2.611c.763 0 1.368.198 1.817.595.448.397.672.922.672 1.575 0 .67-.22 1.19-.658 1.561-.44.372-1.054.558-1.845.558h-1.41zm0-.952h1.425c.422 0 .744-.099.966-.297.222-.199.333-.485.333-.86 0-.37-.113-.664-.338-.884-.225-.22-.534-.334-.928-.34h-1.458v2.381zm9.216 1.899H95.88L95.327 36h-1.232l2.578-6.825h1.064L100.32 36h-1.238l-.558-1.59zm-2.31-.956h1.977l-.989-2.832-.989 2.832zm8.667-.085h-1.322V36h-1.186v-6.825h2.4c.787 0 1.395.177 1.823.53.429.353.643.864.643 1.532 0 .457-.11.839-.33 1.147-.221.307-.528.544-.922.71l1.533 2.845V36h-1.27l-1.37-2.63zm-1.322-.951h1.219c.4 0 .712-.101.937-.303.225-.201.338-.477.338-.827 0-.366-.104-.648-.312-.848-.208-.2-.518-.304-.93-.31h-1.252v2.288zm10.781-2.288h-2.128V36h-1.176v-5.869h-2.11v-.956h5.414v.956zM121.93 36h-1.186l-3.042-4.842V36h-1.186v-6.825h1.186l3.051 4.86v-4.86h1.177V36zm6.67-3.047h-2.803v2.1h3.277V36h-4.463v-6.825h4.43v.956h-3.244v1.885h2.803v.937zm5.227.417h-1.322V36h-1.185v-6.825h2.4c.787 0 1.395.177 1.823.53.428.353.642.864.642 1.532 0 .457-.11.839-.33 1.147-.22.307-.528.544-.921.71l1.532 2.845V36h-1.27l-1.369-2.63zm-1.322-.951h1.22c.4 0 .712-.101.937-.303.225-.201.337-.477.337-.827 0-.366-.104-.648-.312-.848-.207-.2-.517-.304-.93-.31h-1.252v2.288zm9.652 1.823c0-.3-.105-.531-.316-.694-.211-.162-.591-.326-1.141-.492-.55-.165-.988-.35-1.313-.553-.622-.39-.933-.9-.933-1.528 0-.55.224-1.003.673-1.36.448-.356 1.03-.534 1.746-.534.475 0 .898.088 1.27.263.372.175.664.424.877.747.212.324.319.682.319 1.076h-1.182c0-.356-.111-.635-.335-.837-.223-.201-.543-.302-.958-.302-.388 0-.689.083-.903.249-.214.165-.32.396-.32.693 0 .25.115.459.346.626.231.167.613.33 1.144.488.531.157.958.337 1.28.539.321.201.557.432.707.693.15.261.225.567.225.917 0 .569-.218 1.02-.654 1.357-.436.336-1.027.504-1.774.504-.494 0-.948-.092-1.362-.274-.414-.183-.736-.436-.965-.758a1.887 1.887 0 0 1-.345-1.125h1.186c0 .388.128.688.385.9.256.213.623.32 1.101.32.413 0 .723-.084.93-.252a.81.81 0 0 0 .312-.663z" />
      <g>
        <path d="M0 0h146v40H0z" />
      </g>
    </g>
  </svg>
